# Blender 4.5.4 LTS
# www.blender.org
o Plane
v -32.200001 -0.500000 48.299999
v -32.200001 0.500000 48.299999
v -32.200001 -0.500000 -48.299999
v -32.200001 0.500000 -48.299999
v 32.200001 -0.500000 48.299999
v 32.200001 0.500000 48.299999
v 32.200001 -0.500000 -48.299999
v 32.200001 0.500000 -48.299999
vn -0.0000 -1.0000 -0.0000
vn 1.0000 -0.0000 -0.0000
vn -1.0000 -0.0000 -0.0000
vn -0.0000 -0.0000 1.0000
vn -0.0000 -0.0000 -1.0000
vn -0.0000 1.0000 -0.0000
vt 0.001444 0.834463
vt 0.996749 0.197090
vt 0.996749 0.834463
vt 0.000255 0.304425
vt 0.997535 0.268363
vt 0.997535 0.304425
vt -0.001861 0.269708
vt 0.997440 0.303580
vt 0.997440 0.269708
vt 0.075297 0.196539
vt 0.104653 0.835467
vt 0.075297 0.835467
vt 0.077411 0.197185
vt 0.102510 0.834807
vt 0.077411 0.834807
vt -0.000157 0.835288
vt 0.997414 0.196588
vt 0.997414 0.835288
vt 0.001444 0.197090
vt 0.000255 0.268363
vt -0.001861 0.303580
vt 0.104653 0.196539
vt 0.102510 0.197185
vt -0.000157 0.196588
s 0
f 5/1/1 3/2/1 7/3/1
f 6/4/2 7/5/2 8/6/2
f 4/7/3 1/8/3 2/9/3
f 2/10/4 5/11/4 6/12/4
f 8/13/5 3/14/5 4/15/5
f 2/16/6 8/17/6 4/18/6
f 5/1/1 1/19/1 3/2/1
f 6/4/2 5/20/2 7/5/2
f 4/7/3 3/21/3 1/8/3
f 2/10/4 1/22/4 5/11/4
f 8/13/5 7/23/5 3/14/5
f 2/16/6 6/24/6 8/17/6
