# Blender 4.5.3 LTS
# www.blender.org
o Cube
v 0.174000 7.412715 -0.174000
v 0.174000 -0.174000 -0.174000
v 0.174000 7.412715 0.174000
v 0.174000 -0.174000 0.174000
v -0.174000 7.412715 -0.174000
v -0.174000 -0.174000 -0.174000
v -0.174000 7.412715 0.174000
v -0.174000 -0.174000 0.174000
v -0.174000 7.140502 0.174000
v -0.174000 7.146710 -0.174000
v -10.486191 7.140502 0.174000
v -10.486191 7.412715 0.174000
v -10.486191 7.412715 -0.174000
v -10.486191 7.146710 -0.174000
v -10.182994 7.146710 -0.174000
v -10.169871 7.140502 0.174000
v -10.486191 -0.180122 -0.301088
v -10.486191 -0.186330 0.046912
v -10.182994 -0.180122 -0.301088
v -10.169871 -0.186330 0.046912
v -0.174000 1.335646 -0.045134
v -0.174000 1.683646 -0.045134
v -0.174000 1.335646 -0.393133
v -0.174000 1.683646 -0.393133
v 0.174000 1.335646 -0.045134
v 0.174000 1.683646 -0.045134
v 0.174000 1.335646 -0.393133
v 0.174000 1.683646 -0.393133
v -0.174000 1.683646 -7.199536
v -0.174000 1.335646 -7.199536
v 0.174000 1.335646 -7.199536
v 0.174000 1.683646 -7.199536
v -10.477963 1.335646 -0.045134
v -10.477963 1.683646 -0.045134
v -10.477963 1.335646 -0.393133
v -10.477963 1.683646 -0.393133
v -10.129963 1.335646 -0.045134
v -10.129963 1.683646 -0.045134
v -10.129963 1.335646 -0.393133
v -10.129963 1.683646 -0.393133
v -10.477963 1.683646 -7.199536
v -10.477963 1.335646 -7.199536
v -10.129963 1.335646 -7.199536
v -10.129963 1.683646 -7.199536
v 0.174000 7.412715 -7.391602
v 0.174000 -0.174000 -7.391602
v 0.174000 7.412715 -7.043602
v 0.174000 -0.174000 -7.043602
v -0.174000 7.412715 -7.391602
v -0.174000 -0.174000 -7.391602
v -0.174000 7.412715 -7.043602
v -0.174000 -0.174000 -7.043602
v -0.174000 7.140502 -7.043602
v -0.174000 7.146710 -7.391602
v -10.486191 7.140502 -7.043602
v -10.486191 7.412715 -7.043602
v -10.486191 7.412715 -7.391602
v -10.486191 7.146710 -7.391602
v -10.182994 7.146710 -7.391602
v -10.169871 7.140502 -7.043602
v -10.486191 -0.180122 -7.518690
v -10.486191 -0.186330 -7.170690
v -10.182994 -0.180122 -7.518690
v -10.169871 -0.186330 -7.170690
v -0.281455 1.324301 -3.663320
v -0.281455 1.672301 -3.663320
v -0.281455 1.324301 -4.011321
v -0.281455 1.672301 -4.011321
v 0.066545 1.324301 -3.663320
v 0.066545 1.672301 -3.663320
v 0.066545 1.324301 -4.011321
v 0.066545 1.672301 -4.011321
v -10.303107 1.324301 -4.011321
v -10.303107 1.324301 -3.663320
v -10.303107 1.672301 -3.663320
v -10.303107 1.672301 -4.011321
vn -0.0000 1.0000 -0.0000
vn -0.0000 -0.0000 1.0000
vn -1.0000 -0.0000 -0.0000
vn -0.0000 -1.0000 -0.0000
vn 1.0000 -0.0000 -0.0000
vn -0.0000 -0.0000 -1.0000
vn -0.0000 -0.9998 -0.0178
vn 0.9993 0.0007 -0.0377
vn -0.0000 0.0173 -0.9998
vn -0.0000 -0.0173 0.9998
vt 0.987946 0.607093
vt 0.835196 0.759843
vt 0.835196 0.607093
vt 0.691303 0.912592
vt 0.544034 0.912592
vt 0.829715 0.301594
vt 0.682447 0.454344
vt 0.682447 0.301594
vt 0.976447 0.583744
vt 0.823698 0.736493
vt 0.823698 0.583744
vt 0.682447 0.759843
vt 0.682447 0.607093
vt 0.829840 0.454344
vt 0.835196 0.454344
vt 0.835196 0.301594
vt 0.987946 0.759843
vt 0.696783 0.912592
vt 0.773861 0.622774
vt 0.773861 0.775524
vt 0.482699 0.775524
vt 0.482699 0.622774
vt 0.789899 0.597114
vt 0.789899 0.749864
vt 0.498737 0.749864
vt 0.498737 0.597114
vt 0.852179 0.589132
vt 0.699429 0.741882
vt 0.699429 0.589132
vt 0.624143 0.768340
vt 0.624143 0.615590
vt 0.976447 0.736493
vt 0.550860 0.604242
vt 0.546048 0.619923
vt 0.852179 0.741882
s 0
f 5/1/1 3/2/1 1/3/1
f 3/2/2 9/4/2 8/5/2
f 9/6/3 6/7/3 8/8/3
f 2/9/4 8/10/4 6/11/4
f 1/3/5 4/12/5 2/13/5
f 10/14/6 1/3/6 2/13/6
f 10/14/6 15/14/6 13/15/6
f 14/14/3 12/16/3 13/15/3
f 5/1/1 12/17/1 7/17/1
f 7/18/2 11/4/2 16/4/2
f 10/14/7 16/6/7 15/14/7
f 19/14/7 18/6/7 17/14/7
f 11/6/3 17/14/3 18/6/3
f 16/6/8 19/14/8 15/14/8
f 15/14/9 17/14/9 14/14/9
f 11/4/10 20/4/10 16/4/10
f 22/16/3 23/7/3 21/8/3
f 27/19/5 32/3/5 28/3/5
f 28/3/5 25/20/5 27/19/5
f 26/2/2 21/5/2 25/20/2
f 27/19/4 21/21/4 23/22/4
f 24/1/1 26/2/1 28/3/1
f 29/15/6 31/13/6 30/7/6
f 23/22/4 31/13/4 27/19/4
f 28/3/1 29/1/1 24/1/1
f 24/15/3 30/7/3 23/7/3
f 34/16/3 35/7/3 33/8/3
f 39/23/5 44/3/5 40/3/5
f 40/3/5 37/24/5 39/23/5
f 39/23/4 33/25/4 35/26/4
f 36/1/1 38/2/1 40/3/1
f 41/15/6 43/13/6 42/7/6
f 35/26/4 43/13/4 39/23/4
f 40/3/1 41/1/1 36/1/1
f 36/15/3 42/7/3 35/7/3
f 49/1/1 47/2/1 45/3/1
f 47/2/2 53/4/2 52/5/2
f 53/6/3 50/7/3 52/8/3
f 46/27/4 52/28/4 50/29/4
f 45/3/5 48/12/5 46/13/5
f 54/14/6 45/3/6 46/13/6
f 54/14/6 59/14/6 57/15/6
f 58/14/3 56/16/3 57/15/3
f 49/1/1 56/17/1 51/17/1
f 51/18/2 55/4/2 60/4/2
f 54/14/7 60/6/7 59/14/7
f 63/14/7 62/6/7 61/14/7
f 55/6/3 61/14/3 62/6/3
f 60/6/8 63/14/8 59/14/8
f 59/14/9 61/14/9 58/14/9
f 55/4/10 64/4/10 60/4/10
f 67/7/6 76/15/6 68/15/6
f 68/15/6 71/13/6 67/7/6
f 72/3/5 69/12/5 71/13/5
f 70/2/2 65/5/2 69/12/2
f 71/13/4 65/30/4 67/31/4
f 68/1/1 70/2/1 72/3/1
f 75/16/3 73/7/3 74/8/3
f 66/18/2 74/5/2 65/5/2
f 68/1/1 75/17/1 66/17/1
f 65/30/4 73/31/4 67/31/4
f 5/1/1 7/17/1 3/2/1
f 8/5/2 4/12/2 3/2/2
f 3/2/2 7/18/2 9/4/2
f 9/6/3 10/14/3 6/7/3
f 2/9/4 4/32/4 8/10/4
f 1/3/5 3/2/5 4/12/5
f 2/13/6 6/7/6 10/14/6
f 10/14/6 5/15/6 1/3/6
f 13/15/6 5/15/6 10/14/6
f 15/14/6 14/14/6 13/15/6
f 14/14/3 11/6/3 12/16/3
f 5/1/1 13/1/1 12/17/1
f 16/4/2 9/4/2 7/18/2
f 7/18/2 12/18/2 11/4/2
f 10/14/7 9/6/7 16/6/7
f 19/14/7 20/6/7 18/6/7
f 11/6/3 14/14/3 17/14/3
f 16/6/8 20/6/8 19/14/8
f 15/14/9 19/14/9 17/14/9
f 11/4/10 18/4/10 20/4/10
f 22/16/3 24/15/3 23/7/3
f 27/19/5 31/13/5 32/3/5
f 28/3/5 26/2/5 25/20/5
f 26/2/2 22/18/2 21/5/2
f 27/19/4 25/20/4 21/21/4
f 24/1/1 22/17/1 26/2/1
f 29/15/6 32/3/6 31/13/6
f 23/22/4 30/33/4 31/13/4
f 28/3/1 32/3/1 29/1/1
f 24/15/3 29/15/3 30/7/3
f 34/16/3 36/15/3 35/7/3
f 39/23/5 43/13/5 44/3/5
f 40/3/5 38/2/5 37/24/5
f 39/23/4 37/24/4 33/25/4
f 36/1/1 34/17/1 38/2/1
f 41/15/6 44/3/6 43/13/6
f 35/26/4 42/34/4 43/13/4
f 40/3/1 44/3/1 41/1/1
f 36/15/3 41/15/3 42/7/3
f 49/1/1 51/17/1 47/2/1
f 52/5/2 48/12/2 47/2/2
f 47/2/2 51/18/2 53/4/2
f 53/6/3 54/14/3 50/7/3
f 46/27/4 48/35/4 52/28/4
f 45/3/5 47/2/5 48/12/5
f 46/13/6 50/7/6 54/14/6
f 54/14/6 49/15/6 45/3/6
f 57/15/6 49/15/6 54/14/6
f 59/14/6 58/14/6 57/15/6
f 58/14/3 55/6/3 56/16/3
f 49/1/1 57/1/1 56/17/1
f 60/4/2 53/4/2 51/18/2
f 51/18/2 56/18/2 55/4/2
f 54/14/7 53/6/7 60/6/7
f 63/14/7 64/6/7 62/6/7
f 55/6/3 58/14/3 61/14/3
f 60/6/8 64/6/8 63/14/8
f 59/14/9 63/14/9 61/14/9
f 55/4/10 62/4/10 64/4/10
f 67/7/6 73/7/6 76/15/6
f 68/15/6 72/3/6 71/13/6
f 72/3/5 70/2/5 69/12/5
f 70/2/2 66/18/2 65/5/2
f 71/13/4 69/12/4 65/30/4
f 68/1/1 66/17/1 70/2/1
f 75/16/3 76/15/3 73/7/3
f 66/18/2 75/18/2 74/5/2
f 68/1/1 76/1/1 75/17/1
f 65/30/4 74/30/4 73/31/4
o Cube.001
v -11.215805 7.408673 0.482288
v -11.215805 7.608673 0.482288
v -11.215805 7.408673 -7.517712
v -11.215805 7.608673 -7.517712
v 0.784194 7.408673 0.482288
v 0.784194 7.608673 0.482288
v 0.784194 7.408673 -7.517712
v 0.784194 7.608673 -7.517712
vn -1.0000 -0.0000 -0.0000
vn -0.0000 -0.0000 -1.0000
vn 1.0000 -0.0000 -0.0000
vn -0.0000 -0.0000 1.0000
vn -0.0000 -1.0000 -0.0000
vn -0.0000 1.0000 -0.0000
vt 0.213719 0.625218
vt 0.333871 0.505066
vt 0.333871 0.625218
vt 0.213719 0.505066
vt 0.333871 0.384913
vt 0.213719 0.384913
vt 0.333871 0.264761
vt 0.213719 0.264761
vt 0.333871 0.144609
vt 0.456798 0.197066
vt 0.012022 0.864230
vt 0.456798 0.864230
vt 0.442771 0.869223
vt 0.031499 0.252315
vt 0.442771 0.252315
vt 0.213719 0.144609
vt 0.012021 0.197066
vt 0.031499 0.869223
s 0
f 78/36/11 79/37/11 77/38/11
f 80/39/12 83/40/12 79/37/12
f 84/41/13 81/42/13 83/40/13
f 82/43/14 77/44/14 81/42/14
f 83/45/15 77/46/15 79/47/15
f 80/48/16 82/49/16 84/50/16
f 78/36/11 80/39/11 79/37/11
f 80/39/12 84/41/12 83/40/12
f 84/41/13 82/43/13 81/42/13
f 82/43/14 78/51/14 77/44/14
f 83/45/15 81/52/15 77/46/15
f 80/48/16 78/53/16 82/49/16
