# Blender 4.5.3 LTS
# www.blender.org
o Cube
v -0.500000 -18.557997 48.300003
v -0.500000 18.556473 48.300003
v -0.500000 -18.558004 -48.300003
v -0.500000 18.556473 -48.300003
v 0.500000 -18.557997 48.300003
v 0.500000 18.556473 48.300003
v 0.500000 -18.558004 -48.300003
v 0.500000 18.556473 -48.300003
vn -0.0000 -1.0000 -0.0000
vn 1.0000 -0.0000 -0.0000
vn -1.0000 -0.0000 -0.0000
vn -0.0000 -0.0000 1.0000
vn -0.0000 -0.0000 -1.0000
vn -0.0000 1.0000 -0.0000
vt 0.375000 0.750000
vt 0.125000 0.500000
vt 0.375000 0.500000
vt -11.047947 4.936994
vt 12.047947 -3.936994
vt 12.047947 4.936994
vt 0.625000 0.250000
vt 0.375000 0.000000
vt 0.625000 0.000000
vt 0.625000 1.000000
vt 0.625000 0.750000
vt 0.625000 0.500000
vt 0.375000 0.250000
vt 0.875000 0.750000
vt 0.875000 0.500000
vt 0.125000 0.750000
vt -11.047947 -3.936994
vt 0.375000 1.000000
s 1
f 5/1/1 3/2/1 7/3/1
f 6/4/2 7/5/2 8/6/2
f 4/7/3 1/8/3 2/9/3
f 2/10/4 5/1/4 6/11/4
f 8/12/5 3/13/5 4/7/5
f 2/14/6 8/12/6 4/15/6
f 5/1/1 1/16/1 3/2/1
f 6/4/2 5/17/2 7/5/2
f 4/7/3 3/13/3 1/8/3
f 2/10/4 1/18/4 5/1/4
f 8/12/5 7/3/5 3/13/5
f 2/14/6 6/11/6 8/12/6
o Cube.032
v -0.501457 -18.557190 -48.274414
v -0.501457 -11.801313 -48.274414
v -0.501457 -18.557190 -48.738289
v -0.501457 -11.801313 -48.738289
v 65.898552 -18.557190 -48.274414
v 65.898552 -11.801313 -48.274414
v 65.898552 -18.557190 -48.738289
v 65.898552 -11.801313 -48.738289
v 65.898552 -18.557190 -48.274414
v 65.898552 -11.811727 -48.274414
v 65.898552 -18.557190 -48.738289
v 65.898552 -11.811727 -48.738289
v 42.934418 -11.801313 -48.274414
v 42.958305 -11.801313 -48.738289
v 37.606094 -11.801313 -48.738289
v 37.549450 -11.801313 -48.274414
v 7.630203 -11.801313 -48.274414
v 7.630201 -11.801313 -48.738289
v -0.501457 -11.801313 -48.274414
v -0.501457 -11.801313 -48.738289
v 7.630203 -11.801313 -48.274414
v 7.630201 -11.801313 -48.738289
v -0.501457 18.542810 -48.274414
v -0.501457 18.542810 -48.738289
v 7.630203 18.542810 -48.274414
v 7.630201 18.542810 -48.738289
v 7.630201 18.541277 -48.738289
v 37.606094 18.541277 -48.738289
v 37.549450 18.541277 -48.274414
v 7.630203 18.541277 -48.274414
v 42.958305 18.541277 -48.738289
v 65.898552 18.541277 -48.738289
v 42.934418 18.541277 -48.274414
v 37.606094 18.541277 -48.738289
v 42.958305 18.541277 -48.738289
v 42.934418 18.541277 -48.274414
v 37.549450 18.541277 -48.274414
v 65.898552 -11.801313 -48.454891
v 42.934418 -11.801313 -48.454891
v 42.934418 18.541277 -48.454891
v -0.501457 -11.801313 -49.274414
v -0.501457 -18.557190 -49.274414
v 65.898552 -18.557190 -49.274414
v 42.958305 -11.801313 -49.274414
v 65.898552 -11.801313 -49.274414
v 37.606094 -11.801313 -49.274414
v 7.630201 -11.801313 -49.274414
v -0.501457 -11.801313 -49.274414
v 7.630201 -11.801313 -49.274414
v -0.501457 18.541277 -49.274414
v 7.630201 18.541277 -49.274414
v 7.630201 18.541277 -49.274414
v 37.606094 18.541277 -49.274414
v 42.958305 18.541277 -49.274414
v 65.898552 18.541277 -49.274414
v 37.606094 18.541277 -49.274414
v 42.958305 18.541277 -49.274414
v 65.898552 -11.801313 -48.728233
v 42.934418 -11.801313 -48.728233
v 65.898552 18.541277 -48.728233
v 42.934418 18.541277 -48.728233
v 37.549450 -11.801313 -48.730721
v 7.630203 -11.801313 -48.730721
v 37.549450 18.541277 -48.730721
v 7.630203 18.541277 -48.730721
vn -1.0000 -0.0000 -0.0000
vn -0.0000 -0.0000 1.0000
vn -0.0000 -1.0000 -0.0000
vn 1.0000 -0.0000 -0.0000
vn 0.9926 -0.0000 0.1212
vn -0.0000 1.0000 -0.0000
vn -0.9987 -0.0000 -0.0514
vn 0.9987 -0.0000 0.0514
vn -0.9926 -0.0000 -0.1212
vn -0.0000 -0.0000 -1.0000
vn -0.0000 1.0000 -0.0029
vt 0.625000 0.000000
vt 0.375000 0.250000
vt 0.375000 0.000000
vt 0.625000 0.250000
vt 0.551423 -0.252724
vt -2.358968 -0.252724
vt -3.149974 -0.709009
vt 0.375000 0.500000
vt 0.125000 0.750000
vt 0.125000 0.500000
vt 0.625000 0.500000
vt 0.375000 0.750000
vt 1.075245 -0.252724
vt 0.551423 1.796584
vt 0.556933 -1.067223
vt 0.551423 1.884349
vt 0.551423 -1.067223
vt 0.625000 0.280616
vt 0.844384 0.500000
vt 0.891928 0.849899
vt 0.844384 0.750000
vt -3.149974 -0.252724
vt 0.947012 0.400101
vt 0.947012 0.849899
vt -3.149974 1.796686
vt 0.000000 0.000000
vt 1.077569 1.796584
vt 1.077569 -0.252724
vt 0.695093 0.952726
vt 0.731523 0.500000
vt 0.731736 0.750000
vt 1.075245 1.796584
vt 0.556933 1.884349
vt 0.243583 0.033307
vt 0.243583 0.380590
vt 0.625000 0.393477
vt 0.625000 0.413629
vt 0.625000 0.084349
vt 0.625000 0.829279
vt 0.711371 0.500000
vt 0.622775 0.033810
vt 0.891928 0.400101
vt 0.694858 0.297273
vt 0.718082 0.033810
vt 0.747691 0.297273
vt 0.875000 0.500000
vt 3.309078 -0.252724
vt 0.245788 0.100917
vt 0.245788 0.560963
vt -2.358968 1.796584
vt 0.264754 0.308176
vt 0.131086 0.027313
vt 3.309078 -0.709009
vt 0.625000 0.750000
vt -2.358968 1.796686
vt 3.309078 1.796584
s 0
f 10/19/7 11/20/7 9/21/7
f 12/22/7 50/20/7 11/20/7
f 24/23/8 25/24/8 9/25/8
f 15/26/9 9/27/9 11/28/9
f 20/29/10 17/30/10 19/26/10
f 21/31/8 45/32/8 24/23/8
f 23/33/11 37/34/11 24/35/11
f 26/36/12 28/22/12 30/36/12
f 35/37/7 55/37/7 26/37/7
f 12/22/12 27/19/12 28/22/12
f 25/38/12 30/37/12 29/39/12
f 10/40/12 29/24/12 27/40/12
f 33/39/12 32/41/12 31/42/12
f 28/22/7 31/19/7 32/22/7
f 30/37/10 33/39/10 29/39/10
f 29/24/8 31/43/8 27/40/8
f 16/44/10 63/44/10 40/44/10
f 25/38/7 35/37/7 26/37/7
f 21/31/13 39/45/13 22/46/13
f 30/37/10 59/37/10 34/37/10
f 44/47/12 42/48/12 45/49/12
f 22/46/14 44/50/14 21/31/14
f 24/35/15 42/51/15 23/33/15
f 26/36/12 49/22/12 12/22/12
f 21/31/10 48/50/10 41/50/10
f 14/52/12 47/53/12 21/53/12
f 54/54/16 52/55/16 51/26/16
f 56/22/16 59/36/16 57/36/16
f 55/36/16 61/54/16 54/54/16
f 52/56/16 63/57/16 53/57/16
f 54/54/16 65/55/16 52/55/16
f 22/58/10 65/58/10 43/59/10
f 11/28/9 51/26/9 15/26/9
f 36/48/12 60/60/12 35/37/12
f 39/58/7 52/58/7 22/58/7
f 40/29/12 62/61/12 39/58/12
f 42/48/7 54/62/7 23/48/7
f 28/22/9 57/36/9 30/36/9
f 43/59/12 64/63/12 42/48/12
f 34/37/17 58/64/17 32/41/17
f 15/44/10 53/44/10 16/44/10
f 28/22/7 58/22/7 56/22/7
f 23/48/10 61/48/10 36/48/10
f 66/65/8 69/50/8 67/31/8
f 46/66/12 67/67/12 47/67/12
f 47/31/10 69/50/10 48/50/10
f 70/23/8 73/68/8 71/24/8
f 25/69/10 73/70/10 38/70/10
f 37/32/7 70/23/7 24/23/7
f 24/23/12 71/24/12 25/24/12
f 10/19/7 12/22/7 11/20/7
f 12/22/7 49/22/7 50/20/7
f 9/25/8 13/71/8 14/65/8
f 9/25/8 14/65/8 21/31/8
f 25/24/8 10/40/8 9/25/8
f 9/25/8 21/31/8 24/23/8
f 15/26/9 13/30/9 9/27/9
f 20/29/10 18/72/10 17/30/10
f 21/31/8 44/50/8 45/32/8
f 23/33/11 36/51/11 37/34/11
f 26/36/12 12/22/12 28/22/12
f 35/37/7 60/60/7 55/37/7
f 12/22/12 10/19/12 27/19/12
f 25/38/12 26/37/12 30/37/12
f 10/40/12 25/24/12 29/24/12
f 33/39/12 34/37/12 32/41/12
f 28/22/7 27/19/7 31/19/7
f 30/37/10 34/37/10 33/39/10
f 29/24/8 33/73/8 31/43/8
f 16/44/10 53/44/10 63/44/10
f 25/38/7 38/39/7 35/37/7
f 21/31/13 41/50/13 39/45/13
f 30/37/10 57/37/10 59/37/10
f 44/47/12 43/59/12 42/48/12
f 22/46/14 43/45/14 44/50/14
f 24/35/15 45/34/15 42/51/15
f 26/36/12 55/36/12 49/22/12
f 21/31/10 47/31/10 48/50/10
f 14/52/12 46/52/12 47/53/12
f 51/26/16 50/20/16 49/22/16
f 51/26/16 49/22/16 55/36/16
f 52/55/16 53/29/16 51/26/16
f 51/26/16 55/36/16 54/54/16
f 56/22/16 58/22/16 59/36/16
f 55/36/16 60/36/16 61/54/16
f 52/56/16 62/56/16 63/57/16
f 54/54/16 64/54/16 65/55/16
f 22/58/10 52/58/10 65/58/10
f 11/28/9 50/28/9 51/26/9
f 36/48/12 61/48/12 60/60/12
f 39/58/7 62/61/7 52/58/7
f 40/29/12 63/29/12 62/61/12
f 42/48/7 64/63/7 54/62/7
f 28/22/9 56/22/9 57/36/9
f 43/59/12 65/58/12 64/63/12
f 34/37/17 59/37/17 58/64/17
f 15/44/10 51/44/10 53/44/10
f 28/22/7 32/22/7 58/22/7
f 23/48/10 54/62/10 61/48/10
f 66/65/8 68/74/8 69/50/8
f 46/66/12 66/66/12 67/67/12
f 47/31/10 67/31/10 69/50/10
f 70/23/8 72/32/8 73/68/8
f 25/69/10 71/70/10 73/70/10
f 37/32/7 72/32/7 70/23/7
f 24/23/12 70/23/12 71/24/12
o Cube.001
v 64.400002 -18.549999 -48.281502
v 64.400002 18.549999 -48.281502
v 64.400002 -18.549999 -49.271500
v 64.400002 18.549999 -49.271500
v 65.900002 -18.549999 -48.281502
v 65.900002 18.549999 -48.281502
v 65.900002 -18.549999 -49.271500
v 65.900002 18.549999 -49.271500
vn -1.0000 -0.0000 -0.0000
vn -0.0000 -0.0000 -1.0000
vn 1.0000 -0.0000 -0.0000
vn -0.0000 -0.0000 1.0000
vn -0.0000 -1.0000 -0.0000
vn -0.0000 1.0000 -0.0000
vt 0.535898 2.263972
vt 0.634169 -1.418722
vt 0.535898 -1.418722
vt 0.625000 0.250000
vt 0.375000 0.500000
vt 0.375000 0.250000
vt 0.625000 0.500000
vt 0.375000 0.750000
vt 0.125000 0.750000
vt 0.125000 0.500000
vt 0.875000 0.500000
vt 0.625000 0.750000
vt 0.634169 2.263972
vt 0.875000 0.750000
s 0
f 75/75/18 76/76/18 74/77/18
f 77/78/19 80/79/19 76/80/19
f 81/81/20 78/82/20 80/79/20
f 79/75/21 74/77/21 78/77/21
f 80/79/22 74/83/22 76/84/22
f 77/85/23 79/86/23 81/81/23
f 75/75/18 77/87/18 76/76/18
f 77/78/19 81/81/19 80/79/19
f 81/81/20 79/86/20 78/82/20
f 79/75/21 75/75/21 74/77/21
f 80/79/22 78/82/22 74/83/22
f 77/85/23 75/88/23 79/86/23
o Cube.002
v 64.900002 -18.549999 48.299999
v 64.900002 11.550000 48.299999
v 64.900002 -18.549999 -48.299999
v 64.900002 11.550000 -48.299999
v 65.900002 -18.549999 48.299999
v 65.900002 11.550000 48.299999
v 65.900002 -18.549999 -48.299999
v 65.900002 11.550000 -48.299999
vn -1.0000 -0.0000 -0.0000
vn -0.0000 -0.0000 -1.0000
vn 1.0000 -0.0000 -0.0000
vn -0.0000 -0.0000 1.0000
vn -0.0000 -1.0000 -0.0000
vn -0.0000 1.0000 -0.0000
vt -4.503177 1.954661
vt 5.536099 -1.173520
vt -4.503177 -1.173520
vt 0.625000 0.250000
vt 0.375000 0.500000
vt 0.375000 0.250000
vt 0.625000 0.500000
vt 0.375000 0.750000
vt 0.625000 0.750000
vt 0.375000 1.000000
vt 0.125000 0.750000
vt 0.125000 0.500000
vt 0.875000 0.500000
vt 5.536099 1.954661
vt 0.625000 1.000000
vt 0.875000 0.750000
s 0
f 83/89/24 84/90/24 82/91/24
f 85/92/25 88/93/25 84/94/25
f 89/95/26 86/96/26 88/93/26
f 87/97/27 82/98/27 86/96/27
f 88/93/28 82/99/28 84/100/28
f 85/101/29 87/97/29 89/95/29
f 83/89/24 85/102/24 84/90/24
f 85/92/25 89/95/25 88/93/25
f 89/95/26 87/97/26 86/96/26
f 87/97/27 83/103/27 82/98/27
f 88/93/28 86/96/28 82/99/28
f 85/101/29 83/104/29 87/97/29
o Cube.003
v -0.500000 -18.549999 49.299999
v -0.500000 11.550000 49.299999
v -0.500000 -18.549999 48.299999
v -0.500000 11.550000 48.299999
v 65.900002 -18.549999 49.299999
v 65.900002 11.550000 49.299999
v 65.900002 -18.549999 48.299999
v 65.900002 11.550000 48.299999
v 1.145691 -18.549999 49.299999
v 1.145683 -18.549999 48.299999
v 13.645691 -18.549999 49.299999
v 13.645683 -18.549999 48.299999
v 13.646944 -18.549999 48.299999
v 13.646952 -18.549999 49.299999
v 13.646940 11.550000 49.299999
v 1.145691 11.550000 49.299999
v 13.646948 11.550000 48.299999
v 1.145683 11.550000 48.299999
v 13.646944 -18.549999 48.299999
v 1.145683 -18.549999 48.299999
v 1.145691 -18.549999 49.299999
v 13.646952 -18.549999 49.299999
v 13.646944 -18.549999 48.299999
v 1.145683 -18.549999 48.299999
v 1.145691 -18.549999 49.299999
v 13.646952 -18.549999 49.299999
v 13.646944 4.450001 48.299999
v 1.145683 4.450001 48.299999
v 1.145691 4.450001 49.299999
v 13.646952 4.450001 49.299999
v 13.646944 -18.549999 48.299999
v 1.145683 -18.549999 48.299999
v 1.145691 -18.549999 49.299999
v 13.646952 -18.549999 49.299999
v 13.646942 4.470278 49.299999
v 1.145691 4.470278 49.299999
v 13.646948 4.467427 48.299999
v 1.145683 4.467427 48.299999
v 13.646944 4.462438 48.299999
v 1.145683 4.462438 48.299999
v 1.145691 4.462438 49.299999
v 13.646952 4.462438 49.299999
vn -1.0000 -0.0000 -0.0000
vn -0.0000 -0.0000 -1.0000
vn 1.0000 -0.0000 -0.0000
vn -0.0000 -0.0000 1.0000
vn -0.0000 -1.0000 -0.0000
vn -0.0000 1.0000 -0.0000
vt 0.625000 0.000000
vt 0.375000 0.250000
vt 0.375000 0.000000
vt 8.038330 3.664928
vt 7.657860 2.027490
vt 7.657860 -3.293968
vt 0.625000 0.500000
vt 0.375000 0.750000
vt 0.375000 0.500000
vt 0.625000 0.750000
vt 0.566198 0.946736
vt 0.375000 0.946736
vt 0.131196 0.500000
vt 0.125000 0.750000
vt 0.125000 0.500000
vt 0.868804 0.500000
vt 0.868804 0.750000
vt 0.821736 0.750000
vt 0.375000 0.993804
vt 4.767661 -3.293968
vt 4.767659 -3.293968
vt -7.312859 -3.293968
vt 4.767661 2.023461
vt 7.657860 1.329883
vt 7.657860 2.023461
vt 0.566198 0.993804
vt 0.625000 1.000000
vt 0.375000 1.000000
vt 4.767659 2.027490
vt -7.312859 3.664928
vt 0.178264 0.750000
vt 0.131196 0.750000
vt 0.375000 0.256196
vt 0.375000 0.303264
vt 0.000000 0.000000
vt 4.767659 3.664928
vt 0.625000 0.946736
vt 0.625000 0.993804
vt 4.767659 2.023461
vt 4.767661 1.329883
vt 0.625000 0.250000
vt 8.038330 -3.293968
vt 7.657860 3.664928
vt 0.821736 0.500000
vt 0.875000 0.500000
vt 0.875000 0.750000
vt 0.178264 0.500000
vt 4.767659 1.329883
s 0
f 91/105/30 92/106/30 90/107/30
f 93/108/31 127/109/31 99/110/31
f 97/111/32 94/112/32 96/113/32
f 95/114/33 124/115/33 103/116/33
f 99/117/34 90/118/34 92/119/34
f 107/120/35 105/121/35 104/122/35
f 103/116/35 110/123/35 111/116/35
f 108/124/35 115/125/35 112/124/35
f 103/125/34 96/126/34 94/126/34
f 116/127/33 129/128/33 117/129/33
f 125/130/33 91/131/33 90/132/33
f 126/133/31 97/134/31 96/126/31
f 129/117/34 131/135/34 130/136/34
f 99/137/35 108/138/35 109/137/35
f 102/124/35 111/125/35 108/124/35
f 98/136/35 109/117/35 110/136/35
f 110/136/35 113/117/35 114/136/35
f 111/116/35 114/123/35 115/116/35
f 109/137/35 112/138/35 113/137/35
f 118/139/31 131/139/31 119/139/31
f 115/125/30 116/127/30 112/124/30
f 113/117/32 118/136/32 114/136/32
f 114/123/35 123/116/35 122/123/35
f 112/138/35 121/137/35 120/138/35
f 127/109/31 106/140/31 126/133/31
f 125/130/33 104/141/33 105/142/33
f 119/143/30 128/144/30 116/127/30
f 117/117/32 130/136/32 118/136/32
f 91/105/30 93/145/30 92/106/30
f 99/110/31 92/146/31 93/108/31
f 93/108/31 107/147/31 127/109/31
f 97/111/32 95/114/32 94/112/32
f 103/116/33 94/112/33 95/114/33
f 95/114/33 104/141/33 124/115/33
f 99/117/34 98/136/34 90/118/34
f 95/114/35 97/111/35 106/148/35
f 107/120/35 93/149/35 91/150/35
f 95/114/35 106/148/35 107/120/35
f 104/122/35 95/114/35 107/120/35
f 107/120/35 91/150/35 105/121/35
f 103/116/35 98/123/35 110/123/35
f 108/124/35 111/125/35 115/125/35
f 103/125/34 102/124/34 96/126/34
f 116/127/33 128/144/33 129/128/33
f 90/132/33 98/123/33 125/130/33
f 125/130/33 105/142/33 91/131/33
f 96/126/31 102/124/31 126/133/31
f 126/133/31 106/140/31 97/134/31
f 129/117/34 128/151/34 131/135/34
f 99/137/35 102/138/35 108/138/35
f 102/124/35 103/125/35 111/125/35
f 98/136/35 99/117/35 109/117/35
f 110/136/35 109/117/35 113/117/35
f 111/116/35 110/123/35 114/123/35
f 109/137/35 108/138/35 112/138/35
f 118/139/31 130/139/31 131/139/31
f 115/125/30 119/143/30 116/127/30
f 113/117/32 117/117/32 118/136/32
f 114/123/35 115/116/35 123/116/35
f 112/138/35 113/137/35 121/137/35
f 127/109/31 107/147/31 106/140/31
f 125/130/33 124/115/33 104/141/33
f 119/143/30 131/152/30 128/144/30
f 117/117/32 129/117/32 130/136/32
l 101 100
