# Blender 4.5.3 LTS
# www.blender.org
o Cube
v -5.303399 -3.074434 0.500000
v -5.303399 3.074434 0.500000
v -5.303399 -3.074434 -0.500000
v -5.303399 3.074434 -0.500000
v 5.303399 -3.074434 0.500000
v 5.303399 3.074434 0.500000
v 5.303399 -3.074434 -0.500000
v 5.303399 3.074434 -0.500000
v -5.303399 -3.074434 0.500000
v -6.037500 -3.500000 0.438433
v -5.294078 -3.500000 0.500000
v -6.037500 3.500000 0.438433
v -5.303399 3.074434 0.500000
v -5.294078 3.500000 0.500000
v -5.303399 3.074434 -0.500000
v -6.037500 3.500000 -0.438433
v -5.294078 3.500000 -0.500000
v -6.037500 -3.500000 -0.438433
v -5.303399 -3.074434 -0.500000
v -5.294078 -3.500000 -0.500000
v 5.303399 -3.074434 -0.500000
v 6.037500 -3.500000 -0.438433
v 5.294078 -3.500000 -0.500000
v 6.037500 3.500000 -0.438433
v 5.303399 3.074434 -0.500000
v 5.294078 3.500000 -0.500000
v 5.303399 3.074434 0.500000
v 6.037500 3.500000 0.438433
v 5.294078 3.500000 0.500000
v 6.037500 -3.500000 0.438433
v 5.303399 -3.074434 0.500000
v 5.294078 -3.500000 0.500000
vn -0.0000 1.0000 -0.0000
vn 1.0000 -0.0000 -0.0000
vn -1.0000 -0.0000 -0.0000
vn -0.0000 -1.0000 -0.0000
vn -0.0825 -0.0018 0.9966
vn -0.0825 0.0018 0.9966
vn -0.0825 0.0018 -0.9966
vn -0.0825 -0.0018 -0.9966
vn 0.0825 -0.0018 -0.9966
vn 0.0825 0.0018 -0.9966
vn 0.0825 0.0018 0.9966
vn 0.0825 -0.0018 0.9966
vn -0.0836 -0.0000 0.9965
vn -0.0836 -0.0000 -0.9965
vn 0.0836 -0.0000 -0.9965
vn 0.0836 -0.0000 0.9965
vn -0.0000 -0.0000 1.0000
vn -0.0000 -0.0000 -1.0000
vt 0.390199 0.265199
vt 0.390199 0.765199
vt 0.390199 0.484801
vt 0.609801 0.984801
vt 0.390199 0.984801
vt 0.609801 0.484801
vt 0.609801 0.265199
vt 0.375000 1.000000
vt 0.375000 0.984608
vt 0.625000 0.015392
vt 0.609801 0.000000
vt 0.625000 0.000000
vt 0.609801 0.264906
vt 0.625000 0.234608
vt 0.625000 0.264664
vt 0.375000 0.234651
vt 0.390199 0.265199
vt 0.375000 0.265392
vt 0.390199 0.484801
vt 0.375000 0.515371
vt 0.360430 0.499178
vt 0.625000 0.515392
vt 0.609801 0.485094
vt 0.639570 0.499217
vt 0.609801 0.764906
vt 0.625000 0.734608
vt 0.639570 0.750783
vt 0.375000 0.734629
vt 0.390199 0.765199
vt 0.360430 0.750822
vt 0.375000 0.015392
vt 0.390199 0.000000
vt 0.125000 0.734608
vt 0.875000 0.515392
vt 0.859608 0.750000
vt 0.609801 0.765199
vt 0.625000 0.984608
vt 0.125000 0.515392
vt 0.140392 0.500000
vt 0.140392 0.750000
vt 0.859608 0.500000
vt 0.875000 0.734608
s 0
f 3/1/1 5/2/1 7/3/1
f 3/1/2 2/4/2 1/5/2
f 5/2/3 8/6/3 7/3/3
f 8/6/4 2/4/4 4/7/4
f 9/5/5 10/8/5 11/9/5
f 12/10/6 13/11/6 14/12/6
f 15/13/7 16/14/7 17/15/7
f 18/16/8 19/17/8 20/18/8
f 21/19/9 22/20/9 23/21/9
f 24/22/10 25/23/10 26/24/10
f 27/25/11 28/26/11 29/27/11
f 30/28/12 31/29/12 32/30/12
f 13/11/13 10/31/13 9/32/13
f 19/17/14 16/14/14 15/13/14
f 22/20/15 25/23/15 24/22/15
f 31/29/16 28/26/16 27/25/16
f 22/20/4 32/30/4 10/33/4
f 12/10/3 18/16/3 10/31/3
f 1/5/17 32/30/17 31/29/17
f 1/5/1 13/4/1 9/5/1
f 16/34/1 14/35/1 28/26/1
f 6/36/17 14/37/17 13/4/17
f 4/7/18 26/24/18 25/23/18
f 4/7/1 19/17/1 15/13/1
f 7/3/18 20/18/18 19/17/18
f 24/22/2 30/28/2 22/20/2
f 7/3/1 25/23/1 21/19/1
f 6/36/1 31/29/1 27/25/1
f 3/1/1 1/5/1 5/2/1
f 3/1/2 4/7/2 2/4/2
f 5/2/3 6/36/3 8/6/3
f 8/6/4 6/36/4 2/4/4
f 13/11/13 12/10/13 10/31/13
f 19/17/14 18/16/14 16/14/14
f 22/20/15 21/19/15 25/23/15
f 31/29/16 30/28/16 28/26/16
f 10/33/4 18/38/4 20/39/4
f 20/39/4 23/21/4 22/20/4
f 22/20/4 30/28/4 32/30/4
f 32/30/4 11/40/4 10/33/4
f 10/33/4 20/39/4 22/20/4
f 12/10/3 16/14/3 18/16/3
f 1/5/1 9/5/1 11/9/1
f 1/5/17 11/9/17 32/30/17
f 31/29/1 5/2/1 1/5/1
f 1/5/1 2/4/1 13/4/1
f 28/26/1 24/22/1 26/24/1
f 26/24/1 17/41/1 16/34/1
f 16/34/1 12/42/1 14/35/1
f 14/35/1 29/27/1 28/26/1
f 28/26/1 26/24/1 16/34/1
f 6/36/1 27/25/1 29/27/1
f 6/36/17 29/27/17 14/37/17
f 13/4/1 2/4/1 6/36/1
f 4/7/1 15/13/1 17/15/1
f 4/7/18 17/15/18 26/24/18
f 25/23/1 8/6/1 4/7/1
f 4/7/1 3/1/1 19/17/1
f 7/3/1 21/19/1 23/21/1
f 7/3/18 23/21/18 20/18/18
f 19/17/1 3/1/1 7/3/1
f 24/22/2 28/26/2 30/28/2
f 7/3/1 8/6/1 25/23/1
f 6/36/1 5/2/1 31/29/1
